# xmcd
#
# Track frame offsets: 
#        150
#        17978
#        34340
#        59103
#        87365
#        102213
#        127085
#        146360
#        164963
#        190410
#        207478
#        219240
#        237548
#
# Disc length: 3319 seconds
#
# Revision: 0
# Processed by: cddbd v1.5.2PL0 Copyright (c) Steve Scherf et al.
# Submitted via: ExactAudioCopy v0.95b4
#
DISCID=d00cf50d
DTITLE=Joe Cocker - Live USA
DYEAR=1990
DGENRE=Blues
TTITLE0=Feelin´Alright
TTITLE1=Just Like Always
TTITLE2=Seven Days
TTITLE3=With a little help from my friends
TTITLE4=Don´t talk to me
TTITLE5=A whiter shade of pale
TTITLE6=Many rivers to cross
TTITLE7=I heard it through the grapevine
TTITLE8=Inner City Blues
TTITLE9=Watching the river flow
TTITLE10=The moon is a harsh mistress
TTITLE11=The Letter
TTITLE12=You are so beautiful
EXTD=
EXTT0=
EXTT1=
EXTT2=
EXTT3=
EXTT4=
EXTT5=
EXTT6=
EXTT7=
EXTT8=
EXTT9=
EXTT10=
EXTT11=
EXTT12=
PLAYORDER=
